<svg width="97" height="96" viewBox="0 0 97 96" fill="none" xmlns="http://www.w3.org/2000/svg">
<g id="Group 8">
<ellipse id="Oval" cx="48.833" cy="48" rx="47.9624" ry="48" fill="#FCB72B"/>
<path id="Combined Shape" fill-rule="evenodd" clip-rule="evenodd" d="M54.6279 24H33.8553C31.6502 24.0028 29.8634 25.791 29.8606 27.9979V67.9765C29.8634 70.1834 31.6502 71.9716 33.8553 71.9744H53.829V70.544C53.8252 66.9421 54.8906 63.4194 56.8906 60.4246C57.1023 60.1071 57.0597 59.6848 56.7907 59.4155L51.1981 53.8185C50.6811 53.3006 50.4071 52.5884 50.4433 51.8573C50.4796 51.1259 50.823 50.4447 51.3882 49.9805C52.477 49.1476 54.0167 49.2665 54.9651 50.2562L62.8515 58.149L63.9812 57.0184L58.6227 51.6541V27.9979C58.6199 25.791 56.833 24.0028 54.6279 24ZM57.0249 50.0548L56.0949 49.1241C54.5621 47.5569 52.097 47.3936 50.3712 48.7455C49.4584 49.4963 48.9046 50.5985 48.8468 51.7801C48.7893 52.9614 49.2327 54.1122 50.0684 54.949L55.2057 60.0904C53.2898 63.1802 52.2623 66.7391 52.2368 70.3752H33.8554C32.532 70.3752 31.4586 69.3009 31.4586 67.9764V65.5777H51.4322V63.9786H31.4586V30.3965H57.0249V50.0548ZM31.4586 28.7974H57.0249V27.9978C57.0249 26.6733 55.9515 25.5991 54.628 25.5991H33.8554C32.532 25.5991 31.4586 26.6733 31.4586 27.9978V28.7974ZM60.9784 42.6006L59.901 43.7792L64.8007 48.2744C65.9542 49.3364 66.6118 50.8328 66.6121 52.401V71.9745H68.21V52.401C68.208 50.384 67.3628 48.4607 65.8787 47.0956L60.9784 42.6006ZM34.6542 38.3924H37.8499C38.7326 38.3924 39.4478 37.6766 39.4478 36.7933V33.595C39.4478 32.7117 38.7326 31.9958 37.8499 31.9958H34.6542C33.7715 31.9958 33.0563 32.7117 33.0563 33.595V36.7933C33.0563 37.6766 33.7715 38.3924 34.6542 38.3924ZM34.6542 33.595H37.85V36.7933H34.6542V33.595ZM45.8396 38.3924H42.6438C41.7612 38.3924 41.0459 37.6766 41.0459 36.7933V33.595C41.0459 32.7117 41.7612 31.9958 42.6438 31.9958H45.8396C46.7222 31.9958 47.4375 32.7117 47.4375 33.595V36.7933C47.4375 37.6766 46.7222 38.3924 45.8396 38.3924ZM45.8396 33.595H42.6438V36.7933H45.8396V33.595ZM50.6333 38.3924H53.8291C54.7117 38.3924 55.427 37.6766 55.427 36.7933V33.595C55.427 32.7117 54.7117 31.9958 53.8291 31.9958H50.6333C49.7507 31.9958 49.0354 32.7117 49.0354 33.595V36.7933C49.0354 37.6766 49.7507 38.3924 50.6333 38.3924ZM50.6334 33.595H53.8292V36.7933H50.6334V33.595ZM37.8499 46.388H34.6542C33.7715 46.388 33.0563 45.6722 33.0563 44.7889V41.5906C33.0563 40.7073 33.7715 39.9915 34.6542 39.9915H37.8499C38.7326 39.9915 39.4478 40.7073 39.4478 41.5906V44.7889C39.4478 45.6722 38.7326 46.388 37.8499 46.388ZM37.85 41.5906H34.6542V44.7889H37.85V41.5906ZM34.6542 54.3839H37.8499C38.7326 54.3839 39.4478 53.6681 39.4478 52.7847V49.5865C39.4478 48.7031 38.7326 47.9873 37.8499 47.9873H34.6542C33.7715 47.9873 33.0563 48.7031 33.0563 49.5865V52.7847C33.0563 53.6681 33.7715 54.3839 34.6542 54.3839ZM34.6542 49.5864H37.85V52.7847H34.6542V49.5864ZM45.8396 46.388H42.6438C41.7612 46.388 41.0459 45.6722 41.0459 44.7889V41.5906C41.0459 40.7073 41.7612 39.9915 42.6438 39.9915H45.8396C46.7222 39.9915 47.4375 40.7073 47.4375 41.5906V44.7889C47.4375 45.6722 46.7222 46.388 45.8396 46.388ZM45.8396 41.5906H42.6438V44.7889H45.8396V41.5906ZM50.6333 46.388H53.8291C54.7117 46.388 55.427 45.6722 55.427 44.7889V41.5906C55.427 40.7073 54.7117 39.9915 53.8291 39.9915H50.6333C49.7507 39.9915 49.0354 40.7073 49.0354 41.5906V44.7889C49.0354 45.6722 49.7507 46.388 50.6333 46.388ZM50.6334 41.5906H53.8292V44.7889H50.6334V41.5906ZM45.8396 54.3839H42.6438C41.7612 54.3839 41.0459 53.6681 41.0459 52.7847V49.5865C41.0459 48.7031 41.7612 47.9873 42.6438 47.9873H45.8396C46.7222 47.9873 47.4375 48.7031 47.4375 49.5865V52.7847C47.4375 53.6681 46.7222 54.3839 45.8396 54.3839ZM45.8396 49.5864H42.6438V52.7847H45.8396V49.5864ZM34.6542 62.3795H37.8499C38.7326 62.3795 39.4478 61.6637 39.4478 60.7803V57.5821C39.4478 56.6987 38.7326 55.9829 37.8499 55.9829H34.6542C33.7715 55.9829 33.0563 56.6987 33.0563 57.5821V60.7803C33.0563 61.6637 33.7715 62.3795 34.6542 62.3795ZM34.6542 57.582H37.85V60.7803H34.6542V57.582ZM45.8396 62.3795H42.6438C41.7612 62.3795 41.0459 61.6637 41.0459 60.7803V57.5821C41.0459 56.6987 41.7612 55.9829 42.6438 55.9829H45.8396C46.7222 55.9829 47.4375 56.6987 47.4375 57.5821V60.7803C47.4375 61.6637 46.7222 62.3795 45.8396 62.3795ZM45.8396 57.582H42.6438V60.7803H45.8396V57.582ZM45.0407 67.177H43.4428V68.7761H45.0407V67.177Z" fill="#495567"/>
</g>
</svg>
