<svg width="97" height="96" viewBox="0 0 97 96" fill="none" xmlns="http://www.w3.org/2000/svg">
<g id="Group 9">
<ellipse id="Oval Copy 3" cx="48.5349" cy="48" rx="47.9624" ry="48" fill="#FCB72B"/>
<g id="001-scooter">
<path id="Path" d="M45.6071 62.301C45.3896 62.301 45.1766 62.3895 45.0229 62.5433C44.8693 62.697 44.7809 62.9105 44.7809 63.1279C44.7809 63.3453 44.8693 63.5588 45.0229 63.7125C45.1766 63.8663 45.3896 63.9548 45.6071 63.9548C45.8243 63.9548 46.0373 63.8663 46.1913 63.7125C46.3449 63.5588 46.4333 63.3462 46.4333 63.1279C46.4333 62.9105 46.3449 62.697 46.1913 62.5433C46.0373 62.3895 45.8243 62.301 45.6071 62.301Z" fill="black"/>
<path id="Shape" fill-rule="evenodd" clip-rule="evenodd" d="M62.0635 48.4188L60.138 39.7131C60.6576 39.6427 61.1159 39.3781 61.4384 38.9951C61.8189 39.2331 62.2678 39.3714 62.7487 39.3714H64.4011C64.8575 39.3714 65.2274 39.0012 65.2274 38.5445V35.237C65.2274 34.7803 64.8575 34.4101 64.4011 34.4101H62.7487C62.2536 34.4101 61.7921 34.5568 61.4045 34.8084C61.0262 34.3804 60.474 34.1097 59.8595 34.1097H54.9822C54.1059 34.1097 53.3559 34.6598 53.0573 35.4327H51.0989C49.9144 35.4327 48.9507 36.3972 48.9507 37.5826C48.9507 38.768 49.9144 39.7325 51.0989 39.7325H55.3517V41.3988C55.3517 41.8555 55.7216 42.2257 56.1779 42.2257C56.6343 42.2257 57.0042 41.8555 57.0042 41.3988V39.7325H58.4501L60.524 49.1107L56.5988 56.1075C56.1699 56.8691 55.3611 57.3423 54.4874 57.3423H44.6886C44.2784 53.8995 41.3453 51.2208 37.7967 51.2208C36.2266 51.2208 34.7452 51.7328 33.5126 52.7011L33.5078 52.705C32.0402 53.8601 31.1178 55.5177 30.9029 57.3423H29.2059C29.3137 51.3978 34.1791 46.5955 40.1437 46.5955H46.0047C46.4672 46.5955 46.8439 46.9725 46.8439 47.4356V54.8617C46.8439 55.3184 47.2137 55.6885 47.6701 55.6885H52.0665C53.86 55.6885 55.5128 54.7124 56.3797 53.1417C56.7808 52.415 56.9935 51.592 56.9942 50.7622L56.9984 48.0151C56.999 47.5584 56.6295 47.1876 56.1731 47.1869H56.1721C55.7164 47.1869 55.3466 47.5564 55.3459 48.0125L55.3417 50.7603C55.3414 51.3119 55.2 51.8591 54.9334 52.342C54.357 53.3859 53.2584 54.0345 52.0665 54.0345H48.4963V47.4353C48.4963 47.0119 48.3898 46.6126 48.2029 46.2628C48.9452 45.8336 49.4461 45.0312 49.4461 44.1136C49.4461 42.7457 48.334 41.633 46.9675 41.633H43.9518C43.6619 41.633 43.384 41.6834 43.1255 41.7751V34.5219C43.1255 33.154 42.0134 32.0413 40.6469 32.0413H35.3167C31.4528 32.0413 28.2396 34.8804 27.649 38.5832C27.6241 38.6621 27.6106 38.7457 27.6106 38.8326C27.6106 38.8352 27.6107 38.8378 27.6109 38.8403C27.6111 38.8427 27.6112 38.8451 27.6112 38.8475C27.5718 39.164 27.5515 39.486 27.5515 39.8126V44.1139C27.5515 45.3559 28.4684 46.3875 29.6603 46.5668L31.49 48.3978C29.0658 50.6963 27.5515 53.9463 27.5515 57.5442V58.1692C27.5515 58.6259 27.9214 58.996 28.3777 58.996H33.0211C33.0104 59.0493 33.0046 59.1049 33.0046 59.1614C33.0046 60.3614 33.4484 61.4592 34.1791 62.3009H28.3777C27.9214 62.3009 27.5515 62.6714 27.5515 63.1278C27.5515 63.5845 27.9214 63.9547 28.3777 63.9547H37.7012L37.7287 63.9556C37.7514 63.9565 37.774 63.9573 37.7967 63.9573C40.439 63.9573 42.5888 61.8058 42.5888 59.1614C42.5888 59.1049 42.583 59.0493 42.5723 58.996H54.4874C55.7884 58.996 57.0042 58.372 57.7662 57.3397H58.8125C58.5772 57.9127 58.4523 58.5303 58.4523 59.1614C58.4523 60.3614 58.8961 61.4592 59.6268 62.3009H48.912C48.4556 62.3009 48.0858 62.6714 48.0858 63.1278C48.0858 63.5845 48.4556 63.9547 48.912 63.9547H63.1489L63.1965 63.9563C63.2124 63.9569 63.2284 63.9573 63.2444 63.9573C65.8867 63.9573 68.0365 61.8058 68.0365 59.1614C68.0365 58.5303 67.9116 57.9127 67.6763 57.3397H69.028C69.4844 57.3397 69.8542 56.9696 69.8542 56.5128C69.8542 52.1482 66.3863 48.5787 62.0635 48.4188ZM43.9518 43.2871H46.9675C47.4229 43.2871 47.7937 43.6579 47.7937 44.114C47.7937 44.5697 47.4229 44.9409 46.9675 44.9409H43.9518C43.4961 44.9409 43.1256 44.5697 43.1256 44.114C43.1256 43.6579 43.4961 43.2871 43.9518 43.2871ZM29.2062 39.7109V39.7109V39.7109V39.7109V39.7109V39.7109V39.7109V39.7109V39.7109C29.2051 39.7448 29.2039 39.7786 29.2039 39.8126V44.1139C29.2039 44.5697 29.5744 44.9408 30.0298 44.9408H30.0305H40.6465C41.1022 44.9408 41.4727 44.5697 41.4727 44.1139V34.5222C41.4727 34.0661 41.1022 33.6953 40.6465 33.6953H35.3167C32.5743 33.6953 30.2483 35.5119 29.4763 38.006H38.2488C38.7052 38.006 39.0751 38.3762 39.0751 38.8329C39.0751 39.2896 38.7052 39.6598 38.2488 39.6598H29.2078L29.2062 39.7109ZM32.0251 46.5945H33.9157C33.5188 46.8212 33.1357 47.0696 32.7671 47.3371L32.0251 46.5945ZM37.8286 62.3026C39.545 62.2855 40.9363 60.8834 40.9363 59.1615C40.9363 59.1049 40.9421 59.0494 40.9528 58.9961H34.6406C34.6512 59.0494 34.657 59.1049 34.657 59.1615C34.657 60.862 36.0142 62.2503 37.7015 62.301H37.7967C37.8028 62.301 37.8088 62.3014 37.8149 62.3018L37.8232 62.3024L37.8286 62.3026ZM32.5702 57.3422C32.7748 56.0286 33.4642 54.8419 34.5289 54.005L34.5311 54.0035C34.5328 54.0022 34.5345 54.0007 34.5363 53.9995C35.4742 53.2637 36.6016 52.8745 37.7967 52.8745C40.4329 52.8745 42.6246 54.8141 43.0226 57.3422H32.5702ZM63.575 36.064H62.7488C62.2931 36.064 61.9225 36.4351 61.9225 36.8908C61.9225 37.3469 62.2931 37.7177 62.7488 37.7177H63.575V36.064ZM50.6033 37.5826C50.6033 37.309 50.8256 37.0864 51.099 37.0864H52.9193V37.6678C52.9193 37.8086 52.9335 37.9459 52.9603 38.0787H51.099C50.8256 38.0787 50.6033 37.8561 50.6033 37.5826ZM54.9823 38.0787H56.1781H59.8596C60.0859 38.0787 60.2702 37.8946 60.2702 37.6678V36.1743C60.2702 35.9479 60.0859 35.7634 59.8596 35.7634H54.9823C54.7561 35.7634 54.5718 35.9479 54.5718 36.1743V37.6678C54.5718 37.8946 54.7561 38.0787 54.9823 38.0787ZM66.3842 59.1613C66.3842 60.8832 64.9928 62.2853 63.2765 62.3025C63.2658 62.3021 63.2552 62.3008 63.2445 62.3008H63.1493C61.462 62.2501 60.1049 60.8619 60.1049 59.1613C60.1049 58.5043 60.3095 57.8693 60.6864 57.3396H65.8026C66.1795 57.8693 66.3842 58.5043 66.3842 59.1613ZM61.8808 50.0701L58.7302 55.686H68.1488C67.7473 52.5597 65.0982 50.1292 61.8808 50.0701Z" fill="#495567"/>
<path id="Path_2" d="M56.1779 45.5334C56.6343 45.5334 57.0042 45.1632 57.0042 44.7065C57.0042 44.2498 56.6343 43.8796 56.1779 43.8796H56.175C55.7187 43.8796 55.3501 44.2498 55.3501 44.7065C55.3501 45.1632 55.7216 45.5334 56.1779 45.5334V45.5334Z" fill="black"/>
</g>
</g>
</svg>
